<svg width="16" height="16" fill="none" viewBox="0 0 16 16" xmlns="http://www.w3.org/2000/svg">
<path fill-rule="evenodd" clip-rule="evenodd" d="M1.52858 8.47138C1.46466 8.40746 1.41643 8.33379 1.3839 8.25516C1.3513 8.17656 1.33331 8.09037 1.33331 7.99998C1.33331 7.90958 1.3513 7.82339 1.3839 7.74479C1.41643 7.66616 1.46466 7.59249 1.52858 7.52857L5.29981 3.75733C5.56016 3.49699 5.98227 3.49699 6.24262 3.75733C6.50297 4.01768 6.50297 4.43979 6.24262 4.70014L3.60946 7.33331H14C14.3682 7.33331 14.6666 7.63179 14.6666 7.99998C14.6666 8.36817 14.3682 8.66664 14 8.66664H3.60946L6.24262 11.2998C6.50297 11.5602 6.50297 11.9823 6.24262 12.2426C5.98227 12.503 5.56016 12.503 5.29981 12.2426L1.52858 8.47138Z"/>
</svg>
